<svg id="visual" viewBox="0 0 900 450" width="900" height="450" xmlns="http://www.w3.org/2000/svg" xmlns:xlink="http://www.w3.org/1999/xlink" version="1.1"><path d="M0 353L21.5 347.5C43 342 86 331 128.8 326C171.7 321 214.3 322 257.2 324.7C300 327.3 343 331.7 385.8 336C428.7 340.3 471.3 344.7 514.2 338.3C557 332 600 315 642.8 311.5C685.7 308 728.3 318 771.2 318.7C814 319.3 857 310.7 878.5 306.3L900 302L900 451L878.5 451C857 451 814 451 771.2 451C728.3 451 685.7 451 642.8 451C600 451 557 451 514.2 451C471.3 451 428.7 451 385.8 451C343 451 300 451 257.2 451C214.3 451 171.7 451 128.8 451C86 451 43 451 21.5 451L0 451Z" fill="#ccc9f6"></path><path d="M0 334L21.5 336.2C43 338.3 86 342.7 128.8 344C171.7 345.3 214.3 343.7 257.2 343.7C300 343.7 343 345.3 385.8 347.3C428.7 349.3 471.3 351.7 514.2 347.3C557 343 600 332 642.8 326.2C685.7 320.3 728.3 319.7 771.2 326.2C814 332.7 857 346.3 878.5 353.2L900 360L900 451L878.5 451C857 451 814 451 771.2 451C728.3 451 685.7 451 642.8 451C600 451 557 451 514.2 451C471.3 451 428.7 451 385.8 451C343 451 300 451 257.2 451C214.3 451 171.7 451 128.8 451C86 451 43 451 21.5 451L0 451Z" fill="#b6b0f9"></path><path d="M0 358L21.5 356.8C43 355.7 86 353.3 128.8 359C171.7 364.7 214.3 378.3 257.2 380.7C300 383 343 374 385.8 369.7C428.7 365.3 471.3 365.7 514.2 363.8C557 362 600 358 642.8 362.3C685.7 366.7 728.3 379.3 771.2 386.2C814 393 857 394 878.5 394.5L900 395L900 451L878.5 451C857 451 814 451 771.2 451C728.3 451 685.7 451 642.8 451C600 451 557 451 514.2 451C471.3 451 428.7 451 385.8 451C343 451 300 451 257.2 451C214.3 451 171.7 451 128.8 451C86 451 43 451 21.5 451L0 451Z" fill="#9f97fb"></path><path d="M0 391L21.5 395.2C43 399.3 86 407.7 128.8 410.2C171.7 412.7 214.3 409.3 257.2 405.7C300 402 343 398 385.8 398.8C428.7 399.7 471.3 405.3 514.2 408.5C557 411.7 600 412.3 642.8 406.2C685.7 400 728.3 387 771.2 383C814 379 857 384 878.5 386.5L900 389L900 451L878.5 451C857 451 814 451 771.2 451C728.3 451 685.7 451 642.8 451C600 451 557 451 514.2 451C471.3 451 428.7 451 385.8 451C343 451 300 451 257.2 451C214.3 451 171.7 451 128.8 451C86 451 43 451 21.5 451L0 451Z" fill="#877efc"></path><path d="M0 435L21.5 430.2C43 425.3 86 415.7 128.8 410.2C171.7 404.7 214.3 403.3 257.2 405C300 406.7 343 411.3 385.8 416.2C428.7 421 471.3 426 514.2 425C557 424 600 417 642.8 414C685.7 411 728.3 412 771.2 412.7C814 413.3 857 413.7 878.5 413.8L900 414L900 451L878.5 451C857 451 814 451 771.2 451C728.3 451 685.7 451 642.8 451C600 451 557 451 514.2 451C471.3 451 428.7 451 385.8 451C343 451 300 451 257.2 451C214.3 451 171.7 451 128.8 451C86 451 43 451 21.5 451L0 451Z" fill="#6e64fb"></path></svg>