<svg id="visual" viewBox="0 0 960 540" width="960" height="540" xmlns="http://www.w3.org/2000/svg" xmlns:xlink="http://www.w3.org/1999/xlink" version="1.1"><g><g transform="translate(951 530)"><path d="M82.2 -60.7C105 -36.9 121 -2.8 115.2 27.8C109.5 58.4 81.9 85.5 50.4 98.2C18.9 110.9 -16.4 109.2 -45.6 95C-74.8 80.9 -97.8 54.2 -104.4 24.1C-111.1 -6 -101.3 -39.5 -81.2 -62.7C-61.1 -85.9 -30.5 -98.7 -0.4 -98.4C29.7 -98.1 59.4 -84.5 82.2 -60.7Z" stroke="#6e64fb" fill="none" stroke-width="22"></path></g><g transform="translate(348 246)"><path d="M47.7 -36.3C61 -21.4 70.3 -1.6 67.6 17.5C64.9 36.7 50.2 55.2 31.9 62.5C13.7 69.8 -8.1 65.9 -24.9 56.1C-41.7 46.3 -53.5 30.6 -57.4 13.2C-61.3 -4.2 -57.3 -23.4 -46.4 -37.7C-35.5 -52 -17.8 -61.6 -0.3 -61.3C17.2 -61.1 34.5 -51.2 47.7 -36.3Z" stroke="#6e64fb" fill="none" stroke-width="22"></path></g><g transform="translate(546 473)"><path d="M62.3 -51C75.1 -33.5 76.1 -8 69.5 13.7C62.8 35.4 48.5 53.2 29 64.1C9.5 75 -15.2 78.9 -34.5 70.2C-53.9 61.5 -67.9 40.1 -72.9 17C-77.8 -6.1 -73.8 -30.8 -60.1 -48.5C-46.5 -66.1 -23.2 -76.6 0.7 -77.2C24.7 -77.8 49.4 -68.4 62.3 -51Z" stroke="#6e64fb" fill="none" stroke-width="22"></path></g><g transform="translate(784 204)"><path d="M33.1 -25.8C41.9 -15.4 47.4 -1.7 45.1 11.1C42.9 23.9 32.9 35.7 20 41.9C7.2 48.2 -8.4 49 -19.3 42.7C-30.1 36.4 -36.3 23.1 -38.6 9.8C-40.8 -3.5 -39.2 -16.8 -32.2 -26.8C-25.1 -36.8 -12.5 -43.6 -0.2 -43.5C12.2 -43.3 24.3 -36.2 33.1 -25.8Z" stroke="#6e64fb" fill="none" stroke-width="22"></path></g><g transform="translate(80 16)"><path d="M50 -38.7C62.2 -24.7 67.4 -4.1 63.2 14.5C59 33.1 45.4 49.6 27.1 59.7C8.9 69.7 -14.1 73.4 -33.2 65.5C-52.2 57.6 -67.3 38.2 -71.4 17.2C-75.5 -3.8 -68.6 -26.5 -54.8 -40.8C-41.1 -55.1 -20.5 -61.1 -0.8 -60.4C19 -59.8 37.9 -52.6 50 -38.7Z" stroke="#6e64fb" fill="none" stroke-width="22"></path></g><g transform="translate(14 473)"><path d="M49.7 -39.4C61.7 -24.5 66.9 -4 63.4 15.8C60 35.7 47.8 55 30.8 62.6C13.8 70.2 -8.1 66.2 -26.1 56.6C-44.1 47 -58.2 31.7 -64.5 12.4C-70.7 -6.9 -69 -30.3 -57 -45.2C-44.9 -60.1 -22.5 -66.4 -1.8 -64.9C18.8 -63.5 37.7 -54.3 49.7 -39.4Z" stroke="#6e64fb" fill="none" stroke-width="22"></path></g></g></svg>